<?xml version="1.0" standalone="no"?>
<!DOCTYPE svg PUBLIC "-//W3C//DTD SVG 20010904//EN"
 "http://www.w3.org/TR/2001/REC-SVG-20010904/DTD/svg10.dtd">
<svg version="1.0" xmlns="http://www.w3.org/2000/svg"
 width="844.000000pt" height="844.000000pt" viewBox="0 0 844.000000 844.000000"
 preserveAspectRatio="xMidYMid meet">
<metadata>
Created by potrace 1.11, written by Peter Selinger 2001-2013
</metadata>
<g transform="translate(0.000000,844.000000) scale(0.100000,-0.100000)"
fill="#000000" stroke="none">
<path d="M6 8123 c2 -159 6 -417 8 -575 2 -158 7 -291 10 -297 4 -5 2 -12 -3
-15 -5 -4 -6 -19 -3 -34 4 -15 7 -96 7 -179 l0 -153 3383 0 3382 0 0 770 c0
507 -3 770 -10 770 -5 0 -10 -3 -10 -8 0 -4 -10 -18 -23 -32 -12 -14 -47 -54
-77 -90 -30 -35 -59 -70 -65 -76 -5 -6 -29 -33 -52 -60 -23 -27 -50 -58 -60
-70 -10 -12 -38 -45 -63 -73 -25 -29 -54 -63 -65 -75 -11 -12 -40 -47 -65 -76
-25 -30 -63 -75 -85 -100 -22 -25 -59 -68 -82 -95 -54 -65 -102 -121 -135
-159 -15 -17 -58 -68 -95 -113 -38 -45 -70 -82 -73 -82 -6 -1 -48 36 -131 112
-30 29 -93 86 -139 127 -46 41 -98 89 -116 105 -17 17 -67 62 -110 100 -42 39
-89 81 -104 95 -15 14 -66 61 -115 105 -49 44 -103 94 -122 112 -18 17 -33 30
-33 28 0 -2 -17 13 -38 34 -68 68 -264 241 -272 241 -5 0 -15 -6 -22 -13 -7
-7 -80 -71 -163 -142 -82 -72 -163 -141 -179 -155 -16 -14 -41 -36 -56 -50
-15 -14 -52 -45 -81 -70 -30 -25 -63 -54 -74 -65 -12 -11 -41 -36 -66 -56 -24
-21 -60 -51 -79 -69 -19 -17 -70 -61 -112 -97 -43 -37 -78 -70 -78 -75 0 -4
-6 -8 -14 -8 -8 0 -16 -4 -18 -9 -1 -4 -25 -27 -53 -51 -59 -50 -146 -126
-195 -169 -19 -17 -37 -31 -40 -31 -3 0 -25 18 -50 40 -25 22 -67 60 -93 83
-27 23 -67 58 -88 77 -22 19 -56 49 -77 67 -20 18 -46 40 -58 50 -46 39 -151
130 -199 173 -28 25 -80 70 -115 100 -118 101 -165 142 -226 196 -33 30 -75
67 -94 82 -18 15 -43 36 -54 47 -49 47 -168 145 -176 145 -4 0 -30 -21 -57
-47 -28 -27 -96 -91 -153 -143 -56 -52 -122 -113 -145 -135 -188 -177 -277
-259 -295 -275 -12 -10 -76 -70 -142 -132 -67 -62 -137 -128 -157 -146 -20
-18 -57 -53 -82 -77 -26 -24 -63 -58 -82 -75 l-37 -32 -52 58 c-29 31 -66 71
-81 88 -25 26 -112 120 -267 286 -49 54 -219 237 -253 274 -16 17 -73 78 -127
136 -182 195 -225 242 -233 256 -22 39 -26 -5 -21 -273z"/>
<path d="M355 6439 c-114 -11 -158 -30 -225 -98 -32 -33 -57 -78 -77 -141 -4
-14 -8 -880 -9 -1925 -1 -1045 -4 -2296 -9 -2780 -4 -484 -8 -1016 -9 -1183
l-1 -302 1471 0 1470 0 0 185 c0 121 -3 185 -10 188 -6 2 -588 3 -1293 3
-1277 -1 -1283 -1 -1284 19 -4 68 -3 3118 1 3123 3 4 527 7 1165 7 l1161 0 69
35 c51 26 79 48 106 84 72 96 68 7 66 1346 -2 1126 -3 1207 -19 1239 -10 19
-18 38 -18 43 0 5 -6 16 -14 24 -8 7 -23 24 -33 37 -30 38 -93 73 -159 86 -46
10 -318 13 -1170 14 -610 1 -1140 -1 -1179 -4z m2271 -1451 c2 -1037 0 -1128
-15 -1129 -9 -1 -513 -2 -1119 -3 -727 -1 -1106 2 -1110 9 -10 16 -11 74 -14
1188 -2 698 0 1058 7 1060 6 2 514 3 1130 3 l1120 -1 1 -1127z"/>
<path d="M1405 5737 c-66 -10 -146 -37 -163 -54 -7 -7 -19 -13 -27 -13 -19 0
-124 -116 -131 -145 -3 -14 -9 -25 -13 -25 -8 0 -39 -92 -47 -138 -3 -14 -7
-29 -10 -33 -15 -25 -24 -493 -11 -589 19 -137 29 -177 70 -258 47 -94 158
-202 226 -217 9 -2 40 -11 69 -19 66 -18 228 -14 294 7 26 8 69 27 95 43 48
27 123 96 123 112 0 5 9 17 20 27 10 9 18 20 18 24 -1 3 5 20 14 36 8 17 19
44 23 60 5 17 9 32 10 35 23 81 29 151 29 370 1 239 -5 328 -23 400 -27 108
-82 208 -146 269 -39 36 -154 98 -185 99 -8 0 -28 3 -45 7 -46 10 -135 11
-190 2z m168 -231 c47 -20 84 -65 110 -132 21 -56 22 -73 22 -374 0 -279 -2
-320 -18 -360 -10 -25 -19 -50 -20 -56 -4 -18 -51 -71 -79 -88 -14 -10 -47
-19 -73 -21 -123 -8 -193 60 -219 215 -16 92 -13 569 4 640 22 92 56 144 115
174 37 20 115 21 158 2z"/>
<path d="M4187 6438 c-127 -12 -223 -82 -271 -196 -20 -46 -20 -71 -22 -1236
-2 -1233 -2 -1233 39 -1312 32 -63 104 -121 181 -147 21 -7 416 -11 1176 -13
630 -1 1152 -3 1161 -3 14 -1 16 -148 16 -1561 0 -1059 -3 -1563 -10 -1567
-14 -8 -871 -8 -884 0 -6 4 -13 4 -17 0 -8 -8 -610 -8 -623 0 -6 4 -13 4 -17
0 -3 -3 -239 -6 -524 -6 l-517 0 0 -186 0 -186 1465 -1 c806 0 1468 3 1471 8
6 9 3 706 -6 1833 -3 352 -6 651 -5 665 0 14 0 50 0 80 -1 581 -1 1313 0 1340
1 38 2 196 1 220 -2 62 0 164 5 171 3 5 2 9 -3 9 -4 0 -7 35 -5 77 2 43 3 86
3 96 0 9 0 50 -1 90 0 39 1 105 2 145 2 39 1 72 -2 72 -3 0 -4 19 -2 42 1 24
3 50 3 58 0 8 0 53 0 100 0 47 0 91 0 98 0 6 0 48 0 92 0 92 0 94 0 195 0 41
0 81 0 88 0 6 0 35 0 62 0 28 0 60 0 73 0 12 0 56 0 97 0 41 0 81 0 88 0 6 0
35 0 62 0 28 0 59 0 70 1 11 -1 72 -3 135 -5 132 -22 181 -84 249 -52 59 -107
85 -201 97 -61 9 -2246 10 -2326 2z m2286 -1383 c-3 -1316 -1 -1195 -21 -1196
-9 -1 -514 -2 -1120 -3 -727 -1 -1106 2 -1110 9 -6 9 -11 2233 -6 2246 2 3
511 5 1131 5 l1128 -1 -2 -1060z"/>
<path d="M5329 5746 c-2 -2 -29 -6 -59 -9 -198 -19 -339 -149 -395 -366 -42
-164 -40 -634 3 -778 6 -17 8 -34 4 -37 -3 -3 -1 -6 5 -6 5 0 10 -6 10 -12 0
-42 79 -161 138 -208 138 -109 372 -131 541 -50 27 13 55 29 61 36 7 7 23 21
36 31 31 25 98 119 90 127 -3 3 -1 6 5 6 7 0 12 9 12 19 0 11 4 22 9 26 11 6
41 127 49 195 6 55 6 475 -1 546 -12 128 -67 268 -134 340 -64 69 -165 120
-258 130 -27 2 -64 7 -81 9 -17 3 -33 3 -35 1z m83 -236 c51 -15 100 -75 124
-152 17 -56 19 -96 19 -363 0 -260 -3 -308 -18 -359 -33 -106 -90 -158 -177
-161 -57 -3 -97 11 -134 44 -26 24 -66 96 -73 131 -1 8 -6 35 -11 60 -12 63
-7 577 6 618 6 17 9 32 6 32 -10 0 46 97 68 116 44 41 118 54 190 34z"/>
<path d="M3395 2767 c-5 -7 -15 -22 -21 -33 -38 -70 -159 -280 -164 -284 -3
-3 -19 -30 -34 -60 -16 -30 -31 -57 -35 -60 -3 -3 -15 -24 -26 -47 -11 -24
-23 -43 -27 -43 -5 0 -8 -4 -8 -9 0 -4 -22 -46 -50 -92 -27 -46 -58 -100 -68
-119 -10 -19 -31 -56 -46 -82 -25 -43 -26 -48 -9 -49 18 0 948 0 991 1 20 0
22 4 16 23 -4 12 -9 24 -13 27 -3 3 -12 16 -19 29 -8 13 -23 40 -34 60 -11 20
-51 88 -88 151 -37 63 -70 122 -74 130 -4 8 -17 32 -29 52 -64 108 -210 362
-223 388 -17 33 -24 36 -39 17z"/>
</g>
</svg>
