<?xml version="1.0" standalone="no"?><!-- Generator: Gravit.io --><svg xmlns="http://www.w3.org/2000/svg" xmlns:xlink="http://www.w3.org/1999/xlink" style="isolation:isolate" viewBox="280 350.667 210.5 209.667" width="210.5" height="209.667"><defs><clipPath id="_clipPath_VRvohB0PTz4hJiiWIOctxmalVmDEXpxz"><rect x="280" y="350.667" width="210.5" height="209.667"/></clipPath></defs><g clip-path="url(#_clipPath_VRvohB0PTz4hJiiWIOctxmalVmDEXpxz)"><g style="isolation:isolate"/><g style="isolation:isolate"/><g style="isolation:isolate"><path d=" M 289.139 400 C 287.032 400 284.873 400.741 283.347 402.268 C 281.824 403.786 281.083 405.945 281.083 408.056 L 281.083 464.444 C 281.083 466.551 281.824 468.71 283.351 470.236 C 284.873 471.759 287.032 472.5 289.139 472.5 L 345.528 472.5 C 347.634 472.5 349.793 471.759 351.32 470.232 C 352.842 468.71 353.583 466.551 353.583 464.444 L 353.583 408.056 C 353.583 405.949 352.842 403.79 351.316 402.264 C 349.797 400.741 347.634 400 345.528 400 L 289.139 400 Z  M 289.139 408.056 L 345.528 408.056 L 345.528 464.444 L 289.139 464.444 L 289.139 408.056 Z  M 317.333 417.372 C 308.867 417.372 304.871 422.91 304.871 432.979 L 304.871 439.521 C 304.871 441.945 304.839 455.132 317.333 455.132 C 329.828 455.132 329.795 442.34 329.795 439.525 L 329.795 432.975 C 329.795 423.317 325.8 417.372 317.333 417.372 Z  M 317.333 422.91 C 322.569 422.91 322.622 429.423 322.622 431.844 L 322.622 440.278 C 322.622 444.306 321.772 449.091 317.333 449.091 C 312.895 449.091 312.045 444.716 312.045 440.278 L 312.045 431.844 C 312.045 429.423 312.093 422.906 317.333 422.906 L 317.333 422.91 Z " fill="rgb(0,0,0)"/><path d=" M 281.333 461 L 280.667 551 L 280.667 560.333 L 354 560.333 L 354 551 L 289.367 551 L 289.367 461 L 281.333 461 Z " fill="rgb(0,0,0)"/><g style="isolation:isolate"><path d=" M 441.528 400 C 443.634 400 445.793 400.741 447.32 402.268 C 448.842 403.786 449.583 405.945 449.583 408.056 L 449.583 464.444 C 449.583 466.551 448.842 468.71 447.316 470.236 C 445.793 471.759 443.634 472.5 441.528 472.5 L 385.139 472.5 C 383.032 472.5 380.873 471.759 379.347 470.232 C 377.824 468.71 377.083 466.551 377.083 464.444 L 377.083 408.056 C 377.083 405.949 377.824 403.79 379.351 402.264 C 380.869 400.741 383.032 400 385.139 400 L 441.528 400 Z  M 441.528 408.056 L 385.139 408.056 L 385.139 464.444 L 441.528 464.444 L 441.528 408.056 Z  M 413.333 417.372 C 421.8 417.372 425.795 422.91 425.795 432.979 L 425.795 439.521 C 425.795 441.945 425.828 455.132 413.333 455.132 C 400.839 455.132 400.871 442.34 400.871 439.525 L 400.871 432.975 C 400.871 423.317 404.867 417.372 413.333 417.372 Z  M 413.333 422.91 C 408.097 422.91 408.045 429.423 408.045 431.844 L 408.045 440.278 C 408.045 444.306 408.895 449.091 413.333 449.091 C 417.772 449.091 418.622 444.716 418.622 440.278 L 418.622 431.844 C 418.622 429.423 418.573 422.906 413.333 422.906 L 413.333 422.91 Z " fill="rgb(0,0,0)"/></g><path d=" M 449.333 460.667 L 450 550.667 L 450 560 L 376.667 560 L 376.667 550.667 L 441.299 550.667 L 441.299 460.667 L 449.333 460.667 Z " fill="rgb(0,0,0)"/></g><g style="isolation:isolate"><path d=" M 280.667 389.333 L 449.333 389.333 L 449.333 350.667 L 425.333 378.667 L 396 352 L 365.333 378.667 L 334.667 352 L 306 378.667 L 280 350.667 L 280.667 389.333 Z " fill="rgb(0,0,0)"/></g><g style="isolation:isolate"><polygon points="377.981,513.5,352,513.5,364.99,491" fill="rgb(0,0,0)"/></g></g></svg>